<?xml version="1.0" encoding="UTF-8" standalone="no"?>
<svg width="40px" height="40px" viewBox="0 0 40 40" version="1.1" xmlns="http://www.w3.org/2000/svg" xmlns:xlink="http://www.w3.org/1999/xlink" xmlns:sketch="http://www.bohemiancoding.com/sketch/ns">
    <!-- Generator: Sketch 3.5.2 (25235) - http://www.bohemiancoding.com/sketch -->
    <title>Ready To Go offer Extended</title>
    <desc>Created with Sketch.</desc>
    <defs></defs>
    <g id="Page-1" stroke="none" stroke-width="1" fill="none" fill-rule="evenodd" sketch:type="MSPage">
        <g id="Ready-To-Go-offer-Extended" sketch:type="MSArtboardGroup">
            <g sketch:type="MSLayerGroup">
                <path d="M37,40 L3,40 C1.343,40 0,38.657 0,37 L0,3 C0,1.343 1.343,0 3,0 L37,0 C38.657,0 40,1.343 40,3 L40,37 C40,38.657 38.657,40 37,40" id="Fill-1" fill="#FF8D00" sketch:type="MSShapeGroup"></path>
                <path d="M10.1523,10.72 C9.9303,10.15 10.2123,9.507 10.7833,9.285 C11.3533,9.063 11.9953,9.345 12.2173,9.916 C12.4403,10.486 12.1573,11.128 11.5873,11.351 C11.0173,11.573 10.3743,11.29 10.1523,10.72 M13.2433,13.382 L13.0493,12.885 C13.2853,12.713 13.4933,12.513 13.6703,12.29 L14.1583,12.505 C14.2593,12.549 14.3793,12.503 14.4233,12.401 L14.9103,11.295 C14.9543,11.193 14.9083,11.074 14.8063,11.029 L14.3183,10.815 C14.3633,10.534 14.3703,10.245 14.3363,9.956 L14.8333,9.762 C14.9373,9.722 14.9883,9.604 14.9483,9.501 L14.5093,8.374 C14.4693,8.271 14.3523,8.22 14.2493,8.26 L13.7513,8.453 C13.5803,8.217 13.3803,8.009 13.1573,7.833 L13.3723,7.345 C13.4163,7.243 13.3703,7.124 13.2683,7.079 L12.1613,6.593 C12.0603,6.548 11.9403,6.595 11.8963,6.696 L11.6813,7.184 C11.4003,7.139 11.1123,7.133 10.8223,7.166 L10.6293,6.669 C10.5893,6.566 10.4713,6.514 10.3683,6.554 L9.2413,6.993 C9.1383,7.033 9.0863,7.151 9.1273,7.254 L9.3203,7.751 C9.0843,7.922 8.8763,8.122 8.7003,8.345 L8.2123,8.131 C8.1103,8.086 7.9913,8.133 7.9463,8.234 L7.4603,9.341 C7.4153,9.443 7.4623,9.562 7.5633,9.607 L8.0513,9.821 C8.0063,10.102 8.0003,10.391 8.0333,10.68 L7.5363,10.874 C7.4333,10.914 7.3813,11.031 7.4213,11.135 L7.8603,12.261 C7.9003,12.365 8.0183,12.416 8.1213,12.376 L8.6183,12.182 C8.7893,12.418 8.9893,12.626 9.2123,12.803 L8.9983,13.291 C8.9533,13.392 9.0003,13.512 9.1013,13.557 L10.2083,14.043 C10.3093,14.088 10.4293,14.041 10.4743,13.94 L10.6883,13.452 C10.9693,13.496 11.2573,13.503 11.5473,13.47 L11.7413,13.967 C11.7813,14.07 11.8983,14.121 12.0023,14.081 L13.1283,13.643 C13.2313,13.602 13.2833,13.485 13.2433,13.382" id="Fill-3" fill="#FDDE80" sketch:type="MSShapeGroup"></path>
                <path d="M6.3327,21.2863 C6.2307,20.3363 6.9177,19.4833 7.8677,19.3813 C8.8167,19.2793 9.6697,19.9663 9.7717,20.9163 C9.8747,21.8663 9.1877,22.7183 8.2377,22.8213 C7.2877,22.9233 6.4347,22.2363 6.3327,21.2863 M9.9047,26.5553 L9.8157,25.7283 C10.2407,25.5663 10.6357,25.3493 10.9927,25.0853 L11.6407,25.6073 C11.7757,25.7163 11.9747,25.6943 12.0827,25.5603 L13.2667,24.0903 C13.3747,23.9563 13.3537,23.7573 13.2187,23.6483 L12.5707,23.1263 C12.7537,22.7213 12.8807,22.2893 12.9487,21.8393 L13.7757,21.7503 C13.9477,21.7323 14.0737,21.5763 14.0547,21.4043 L13.8527,19.5283 C13.8347,19.3563 13.6787,19.2303 13.5067,19.2493 L12.6787,19.3383 C12.5177,18.9133 12.3007,18.5183 12.0367,18.1613 L12.5587,17.5133 C12.6677,17.3783 12.6457,17.1793 12.5107,17.0713 L11.0417,15.8873 C10.9067,15.7783 10.7077,15.8003 10.5997,15.9343 L10.0777,16.5823 C9.6727,16.4003 9.2407,16.2733 8.7907,16.2053 L8.7017,15.3773 C8.6827,15.2053 8.5277,15.0803 8.3557,15.0983 L6.4797,15.3003 C6.3077,15.3193 6.1817,15.4743 6.2007,15.6463 L6.2897,16.4743 C5.8637,16.6363 5.4697,16.8523 5.1117,17.1173 L4.4647,16.5953 C4.3297,16.4863 4.1307,16.5083 4.0217,16.6423 L2.8387,18.1123 C2.7297,18.2463 2.7507,18.4453 2.8857,18.5543 L3.5337,19.0763 C3.3517,19.4813 3.2237,19.9133 3.1567,20.3633 L2.3287,20.4523 C2.1567,20.4703 2.0317,20.6263 2.0497,20.7983 L2.2517,22.6743 C2.2697,22.8463 2.4257,22.9723 2.5977,22.9533 L3.4257,22.8643 C3.5877,23.2893 3.8037,23.6843 4.0677,24.0413 L3.5457,24.6893 C3.4377,24.8243 3.4587,25.0233 3.5937,25.1313 L5.0627,26.3153 C5.1977,26.4243 5.3967,26.4023 5.5057,26.2683 L6.0277,25.6203 C6.4327,25.8023 6.8637,25.9293 7.3137,25.9973 L7.4037,26.8253 C7.4217,26.9973 7.5777,27.1223 7.7497,27.1043 L9.6257,26.9023 C9.7977,26.8833 9.9227,26.7273 9.9047,26.5553" id="Fill-5" fill="#FDDE80" sketch:type="MSShapeGroup"></path>
                <path d="M28.0943,17.7159 C27.6653,16.6149 28.2103,15.3749 29.3113,14.9459 C30.4123,14.5179 31.6523,15.0629 32.0813,16.1639 C32.5093,17.2639 31.9643,18.5039 30.8643,18.9329 C29.7633,19.3619 28.5233,18.8169 28.0943,17.7159 M34.0603,22.8539 L33.6863,21.8939 C34.1423,21.5639 34.5433,21.1779 34.8843,20.7469 L35.8263,21.1609 C36.0223,21.2469 36.2533,21.1569 36.3393,20.9609 L37.2773,18.8249 C37.3643,18.6289 37.2743,18.3989 37.0783,18.3129 L36.1363,17.8989 C36.2223,17.3559 36.2353,16.7989 36.1713,16.2399 L37.1303,15.8669 C37.3293,15.7889 37.4293,15.5629 37.3513,15.3629 L36.5053,13.1889 C36.4273,12.9889 36.2003,12.8899 36.0013,12.9669 L35.0423,13.3409 C34.7113,12.8859 34.3253,12.4839 33.8953,12.1429 L34.3093,11.2009 C34.3953,11.0049 34.3053,10.7749 34.1093,10.6879 L31.9733,9.7499 C31.7773,9.6639 31.5463,9.7529 31.4603,9.9489 L31.0463,10.8909 C30.5043,10.8049 29.9473,10.7919 29.3883,10.8559 L29.0143,9.8969 C28.9373,9.6979 28.7103,9.5979 28.5113,9.6759 L26.3363,10.5229 C26.1373,10.5999 26.0373,10.8269 26.1153,11.0259 L26.4893,11.9859 C26.0333,12.3159 25.6323,12.7019 25.2913,13.1329 L24.3493,12.7189 C24.1533,12.6319 23.9223,12.7219 23.8363,12.9179 L22.8973,15.0549 C22.8113,15.2499 22.9013,15.4809 23.0973,15.5669 L24.0393,15.9809 C23.9523,16.5239 23.9393,17.0799 24.0043,17.6389 L23.0453,18.0129 C22.8453,18.0899 22.7463,18.3169 22.8233,18.5159 L23.6703,20.6909 C23.7483,20.8899 23.9743,20.9899 24.1743,20.9119 L25.1333,20.5389 C25.4643,20.9939 25.8493,21.3949 26.2803,21.7369 L25.8663,22.6789 C25.7803,22.8739 25.8703,23.1049 26.0663,23.1909 L28.2023,24.1299 C28.3983,24.2159 28.6293,24.1259 28.7153,23.9299 L29.1293,22.9879 C29.6713,23.0749 30.2283,23.0879 30.7873,23.0229 L31.1603,23.9829 C31.2383,24.1819 31.4653,24.2809 31.6643,24.2039 L33.8383,23.3569 C34.0383,23.2789 34.1373,23.0529 34.0603,22.8539" id="Fill-7" fill="#FDDE80" sketch:type="MSShapeGroup"></path>
                <path d="M20.0065,39.3488 C18.4335,39.3508 17.1575,38.0768 17.1555,36.5038 C17.1545,34.9308 18.4285,33.6548 20.0015,33.6528 C21.5735,33.6518 22.8505,34.9258 22.8515,36.4978 C22.8535,38.0708 21.5795,39.3468 20.0065,39.3488 M24.5615,24.4688 C23.2105,23.7058 21.6535,23.2648 19.9905,23.2668 C18.6725,23.2678 17.4225,23.5508 16.2875,24.0488 C17.2485,23.1498 18.5615,22.6998 19.9905,22.6468 C20.5845,22.6248 21.1565,22.6598 21.7115,22.7518 L21.6965,7.5968 C21.6965,7.2968 21.9385,7.0538 22.2385,7.0538 C22.5375,7.0528 22.7815,7.2958 22.7815,7.5958 L22.7965,23.0118 C23.3995,23.2038 23.9855,23.4678 24.5605,23.8158 L24.5435,6.0708 C24.5435,6.0708 22.4985,3.3228 22.2625,3.0008 C21.4315,1.8708 20.6265,2.0978 19.9835,2.7768 C19.3405,3.4558 15.4065,7.3048 15.4065,7.3048 L18.0085,9.3758 L15.4115,11.9798 L18.1255,13.6358 L15.4155,16.4568 L18.3175,17.9718 L15.4555,20.8398 C15.4555,20.8398 15.4465,23.3458 15.4455,24.4648 L15.4445,24.4648 C15.4445,24.4668 15.4445,24.4678 15.4455,24.4698 L15.4455,24.4698 C15.4445,24.4678 15.4445,24.4668 15.4445,24.4648 C12.6175,26.0598 10.7065,29.0888 10.7095,32.5658 C10.7125,35.6128 12.1885,38.3078 14.4575,39.9998 L25.5425,39.9998 C27.8155,38.3048 29.2935,35.6018 29.2905,32.5478 C29.2865,29.0798 27.3795,26.0618 24.5615,24.4688" id="Fill-9" fill="#FDF7DF" sketch:type="MSShapeGroup"></path>
            </g>
        </g>
    </g>
</svg>