<svg id="Capa_1" enable-background="new 0 0 481 481" height="512" viewBox="0 0 481 481" width="512" xmlns="http://www.w3.org/2000/svg"><g><path d="m374.454 411c0-46.392-37.608-84-84-84-33.333-12.473-66.667-12.473-100 0-46.392 0-84 37.608-84 84 89.333 13.161 178.667 13.161 268 0z" fill="#ff9eb1"/><path d="m140.45 249.999-9.996 77.001h220v-77.001z" fill="#fff7bf"/><path d="m339.851 163.391c-12.531-9.495-30.035-15.392-49.397-15.392-19.685 0-37.43 6.101-50 15.873-12.57-9.772-30.315-15.873-50-15.873-19.362 0-36.866 5.897-49.397 15.392-7.881 5.972-11.784 15.843-10.513 25.649l3.833 29.591c1.109 8.563 6.07 16.194 13.539 20.525 11.719 6.794 26.487 10.843 42.539 10.843h100c16.053 0 30.82-4.049 42.539-10.843 7.469-4.331 12.43-11.962 13.539-20.525l3.833-29.591c1.269-9.806-2.633-19.677-10.515-25.649z" fill="#e0ef9b"/><path d="m414.913 452.141 55.541-41.141h-460l55.541 41.141c16.534 12.248 36.566 18.859 57.142 18.859h234.634c20.576 0 40.608-6.611 57.142-18.859z" fill="#fff"/><path d="m250.474 471c0 5.51-4.479 10-10 10-5.51 0-10-4.49-10-10s4.49-10 10-10c5.52 0 10 4.49 10 10zm225.93-51.97-55.54 41.15c-9.08 6.73-31.281 20.82-63.091 20.82h-72.3c-5.51 0-10-4.49-10-10s4.49-10 10-10h72.3c18.301 0 36.48-6 51.19-16.89l31.19-23.11h-399.4l31.19 23.11c14.711 10.89 32.891 16.89 51.191 16.89h72.34c5.521 0 10 4.49 10 10s-4.479 10-10 10h-72.34c-32.002 0-54.01-14.09-63.09-20.82l-55.54-41.15c-7.727-5.901-3.614-18.03 5.95-18.03h86.549c2.755-25.917 16.075-48.717 35.571-64h-2.12c-5.258 0-10.742-4.387-9.917-11.288l9.996-77.001c.389-2.997 2.085-5.533 4.464-7.084-5.683-5.823-9.469-13.456-10.538-21.711l-3.833-29.591c-1.745-13.481 3.77-26.855 14.392-34.904 12.437-9.424 28.3-15.279 45.437-16.927v-20.494h-20c-5.522 0-10-4.477-10-10s4.478-10 10-10h16.032c-20.792-6.061-36.032-25.278-36.032-48 0-27.57 22.43-50 50-50 5.522 0 10 4.477 10 10v88h20c5.522 0 10 4.477 10 10s-4.478 10-10 10h-20v20.494c14.745 1.416 28.517 5.945 39.999 13.189 11.483-7.23 25.281-11.77 40.001-13.189v-20.494h-20c-5.522 0-10-4.477-10-10s4.478-10 10-10h16.032c-20.792-6.061-36.032-25.278-36.032-48 0-27.57 22.43-50 50-50 5.522 0 10 4.477 10 10v88h20c5.522 0 10 4.477 10 10s-4.478 10-10 10h-20v20.494c17.137 1.648 32.999 7.503 45.437 16.927h.001c10.621 8.049 16.136 21.424 14.391 34.903l-3.833 29.592c-.972 7.506-4.192 14.497-9.039 20.083h3.044c5.522 0 10 4.477 10 10v77.001c0 5.523-4.478 10-10 10h-2.098c19.49 15.284 32.812 38.087 35.565 64h86.532c8.886 0 14.257 11.597 5.949 18.03zm-234.567-159.031 7.402 57.001h91.215v-57.001zm91.974-88.638c-11.207-8.492-27.01-13.362-43.357-13.362-16.308 0-31.524 4.609-42.848 12.978-10.416 7.699-16.152 17.65-16.152 28.022s5.736 20.323 16.152 28.022c11.323 8.369 26.54 12.978 42.848 12.978 13.638 0 26.964-3.372 37.523-9.494 4.693-2.722 7.923-7.641 8.638-13.158l3.833-29.591c.826-6.384-1.717-12.667-6.637-16.395zm-53.357-93.081v-56.56c-11.639 4.128-20 15.243-20 28.28s8.361 24.152 20 28.28zm-100 0v-56.56c-11.639 4.128-20 15.243-20 28.28s8.361 24.152 20 28.28zm-39.994 109.477 3.833 29.59c.715 5.518 3.944 10.437 8.638 13.158 10.561 6.123 23.887 9.494 37.523 9.494h41.379c-13.169-11.192-20.379-25.585-20.379-41 0-12.14 4.481-23.644 12.809-33.455-9.869-4.856-21.665-7.545-33.809-7.545-16.348 0-32.15 4.871-43.358 13.362-4.919 3.728-7.462 10.011-6.636 16.396zm1.376 129.243h87.235l-7.403-57.001h-72.432zm55.15 84c2.753-25.913 16.076-48.716 35.565-64h-42.098c-37.411 0-68.406 27.911-73.306 64zm166.774 0c-4.899-36.089-35.895-64-73.306-64s-68.406 27.911-73.306 64z"/></g></svg>